<svg xmlns="http://www.w3.org/2000/svg" viewBox="0 0 274.13 43.34"><g id="Layer_2" data-name="Layer 2"><g id="Layer_1-2" data-name="Layer 1"><path d="M43.34,21.67q0,9.61-6.22,15.58a21.49,21.49,0,0,1-15.51,6,21.06,21.06,0,0,1-12-3.62A21.51,21.51,0,0,1,3.68,9.68a21.46,21.46,0,0,1,7.8-7.11A21,21,0,0,1,21.61,0a21.05,21.05,0,0,1,14,4.88A21.87,21.87,0,0,1,43,18.05l-12.73.82Q27.46,13,22,13a8.67,8.67,0,0,0-8.7,8.7A8.59,8.59,0,0,0,22,30.32a7.92,7.92,0,0,0,5.87-2.19,11,11,0,0,0,2.78-6.46Z"/><path d="M68.81,29.28q0,6.48-3.86,10.21a13.89,13.89,0,0,1-10.1,3.74A13.84,13.84,0,0,1,44.8,39.49Q40.94,35.75,41,29.28V13.94q0-6.46,3.79-10.21A13.82,13.82,0,0,1,54.85,0Q61.21,0,65,3.73t3.8,10.21Zm-11.1-1.23V15.12q0-4.14-2.86-4.14t-2.8,4.14V28.05q0,4.14,2.8,4.14T57.71,28.05Z"/><path d="M96.79,6.48,86.39,14A3.33,3.33,0,0,0,83.3,11.8a1.94,1.94,0,0,0-2,1,9.2,9.2,0,0,0-.47,3.45v4H84.7v11.1H80.84v11.1H68.11V16.24q0-7.3,4.35-11.77T84.11,0A14.55,14.55,0,0,1,96.79,6.48Z"/><path d="M117.35.82l-7.77,16.24q7.71,2.28,7.71,12a12.84,12.84,0,0,1-4.67,10.34q-4.68,3.91-12.79,3.91A23.48,23.48,0,0,1,92.23,42V30.14a22.23,22.23,0,0,0,3.3,1.23,11.49,11.49,0,0,0,3,.41,6.45,6.45,0,0,0,4.35-1.38,4.49,4.49,0,0,0,1.61-3.59,4.49,4.49,0,0,0-1.81-3.74,7.85,7.85,0,0,0-4.91-1.4,16.19,16.19,0,0,0-3,.35l4.91-9.29H92.23V.82Z"/><path d="M143.69.82l-7.76,16.24q7.71,2.28,7.71,12A12.82,12.82,0,0,1,139,39.43q-4.67,3.91-12.79,3.91A23.47,23.47,0,0,1,118.58,42V30.14a21.43,21.43,0,0,0,3.3,1.23,11.38,11.38,0,0,0,3,.41,6.45,6.45,0,0,0,4.35-1.38,4.48,4.48,0,0,0,1.6-3.59A4.49,4.49,0,0,0,129,23.07a7.82,7.82,0,0,0-4.9-1.4,16.1,16.1,0,0,0-3,.35L126,12.73h-7.42V.82Z"/><path d="M174.07,30.67a11.21,11.21,0,0,1-3.53,8.67q-3.54,3.24-9.91,3.24h-2.45V32.19h2.63a2.58,2.58,0,0,0,1.9-.57,3.07,3.07,0,0,0,.55-2.12,2.7,2.7,0,0,0-.58-2,2.7,2.7,0,0,0-1.87-.54h-2.63V16.76h.94a2.62,2.62,0,0,0,1.89-.55,3,3,0,0,0,.56-2.13,2.62,2.62,0,0,0-.59-2,2.72,2.72,0,0,0-1.86-.52h-2.81v31H143.87V.82h15.3q6.6,0,9.91,2.6c2.19,1.73,3.3,4.39,3.3,8a10.7,10.7,0,0,1-4.39,8.7A11.46,11.46,0,0,1,174.07,30.67Z"/><path d="M198.54.82l-7.77,16.24q7.72,2.28,7.72,12a12.82,12.82,0,0,1-4.68,10.34q-4.67,3.91-12.79,3.91A23.43,23.43,0,0,1,173.43,42V30.14a21.43,21.43,0,0,0,3.3,1.23,11.36,11.36,0,0,0,3,.41,6.48,6.48,0,0,0,4.36-1.38,4.48,4.48,0,0,0,1.6-3.59,4.49,4.49,0,0,0-1.81-3.74,7.82,7.82,0,0,0-4.9-1.4,16.1,16.1,0,0,0-3,.35l4.91-9.29h-7.42V.82Z"/><path d="M224.89.82l-7.77,16.24q7.71,2.28,7.71,12a12.84,12.84,0,0,1-4.67,10.34q-4.68,3.91-12.8,3.91A23.47,23.47,0,0,1,199.77,42V30.14a22.23,22.23,0,0,0,3.3,1.23,11.43,11.43,0,0,0,3,.41,6.45,6.45,0,0,0,4.35-1.38,4.79,4.79,0,0,0-.2-7.33,7.87,7.87,0,0,0-4.91-1.4,16.1,16.1,0,0,0-3,.35l4.91-9.29h-7.42V.82Z"/><path d="M254.27,42.47H242.12V17.29q0-4.56-2.69-4.56a1.92,1.92,0,0,0-2,1.08,9.49,9.49,0,0,0-.47,3.48V42.47H224.77V19.1a33.34,33.34,0,0,1,.44-6,21.41,21.41,0,0,1,1.31-4.32,14.23,14.23,0,0,1,5.26-6.36A13.65,13.65,0,0,1,239.55,0a13.35,13.35,0,0,1,11.74,6.48A17.21,17.21,0,0,1,253.8,13a44.3,44.3,0,0,1,.47,7.24Z"/><path d="M274.13,13.32a11.81,11.81,0,0,0-1.84-.67,6.24,6.24,0,0,0-1.61-.21,3,3,0,0,0-3.15,3.16,5.24,5.24,0,0,0,.58,2.22c.08.11.53.88,1.35,2.3a20.61,20.61,0,0,1,1.87,4.33,16.08,16.08,0,0,1,.64,4.46,13.78,13.78,0,0,1-4.21,10.34,14.09,14.09,0,0,1-10.22,4.09,18.18,18.18,0,0,1-4.79-.76V30.73A12.75,12.75,0,0,0,255,31q3.27,0,3.27-3.1a4.92,4.92,0,0,0-.26-1.69,24.29,24.29,0,0,0-1.49-2.75A23.58,23.58,0,0,1,254,18.4a13.73,13.73,0,0,1-.56-4,14,14,0,0,1,4.21-10A13.65,13.65,0,0,1,267.76,0a18.64,18.64,0,0,1,6.37,1.29Z"/></g></g></svg>